<svg xmlns="http://www.w3.org/2000/svg" viewBox="0 0 200 200" width="200" height="200">
<rect width="200" height="200" rx="44" fill="#0B2A4A"/>
<path transform="translate(23.8,143)" d="M4.9559999999999995 -24.779999999999998H26.432Q26.904 -20.177999999999997 29.618000000000002 -17.759Q32.332 -15.34 36.698 -15.34Q41.181999999999995 -15.34 43.77799999999999 -17.405Q46.373999999999995 -19.47 46.373999999999995 -23.128Q46.373999999999995 -26.195999999999998 44.309 -28.201999999999998Q42.244 -30.208 39.235 -31.505999999999997Q36.226 -32.803999999999995 30.68 -34.455999999999996Q22.656 -36.934 17.582 -39.412Q12.508 -41.89 8.85 -46.727999999999994Q5.192 -51.565999999999995 5.192 -59.354Q5.192 -70.91799999999999 13.57 -77.46699999999998Q21.948 -84.01599999999999 35.4 -84.01599999999999Q49.087999999999994 -84.01599999999999 57.465999999999994 -77.46699999999998Q65.844 -70.91799999999999 66.434 -59.236H44.604Q44.367999999999995 -63.248 41.653999999999996 -65.54899999999999Q38.94 -67.85 34.692 -67.85Q31.034 -67.85 28.791999999999998 -65.90299999999999Q26.549999999999997 -63.955999999999996 26.549999999999997 -60.297999999999995Q26.549999999999997 -56.285999999999994 30.325999999999997 -54.044Q34.102 -51.802 42.126 -49.205999999999996Q50.15 -46.492 55.165 -44.013999999999996Q60.18 -41.536 63.837999999999994 -36.816Q67.496 -32.096 67.496 -24.662Q67.496 -17.582 63.89699999999999 -11.8Q60.297999999999995 -6.018 53.45399999999999 -2.596Q46.61 0.826 37.288 0.826Q28.201999999999998 0.826 21.003999999999998 -2.124Q13.806 -5.074 9.498999999999999 -10.855999999999998Q5.192 -16.637999999999998 4.9559999999999995 -24.779999999999998Z" fill="#FFFFFF"/>
<path transform="translate(90.4,143)" d="M81.774 -41.418Q81.774 -29.264 76.405 -19.823999999999998Q71.036 -10.384 61.183 -5.192Q51.33 0.0 38.35 0.0H7.316V-82.836H38.35Q51.448 -82.836 61.242000000000004 -77.644Q71.036 -72.452 76.405 -63.071Q81.774 -53.69 81.774 -41.418ZM61.242 -41.418Q61.242 -52.864 54.87 -59.23599999999999Q48.498 -65.60799999999999 37.052 -65.60799999999999H27.494V-17.464H37.052Q48.498 -17.464 54.87 -23.717999999999996Q61.242 -29.971999999999998 61.242 -41.418Z" fill="#F5A524"/>
</svg>